<svg xmlns="http://www.w3.org/2000/svg" width="24" height="24" viewBox="0 0 24 24" fill="none"><path d="M20 15H4C3.20459 14.9992 2.44199 14.6829 1.87956 14.1204C1.31712 13.558 1.00079 12.7954 1 12V4C1.00079 3.20459 1.31712 2.44199 1.87956 1.87956C2.44199 1.31712 3.20459 1.00079 4 1H20C20.7954 1.00079 21.558 1.31712 22.1204 1.87956C22.6829 2.44199 22.9992 3.20459 23 4V12C22.9992 12.7954 22.6829 13.558 22.1204 14.1204C21.558 14.6829 20.7954 14.9992 20 15Z" fill="#3FCCF9"></path><path d="M6 9C6.55228 9 7 8.55228 7 8C7 7.44772 6.55228 7 6 7C5.44772 7 5 7.44772 5 8C5 8.55228 5.44772 9 6 9Z" fill="#3772FE"></path><path d="M18 9C18.5523 9 19 8.55228 19 8C19 7.44772 18.5523 7 18 7C17.4477 7 17 7.44772 17 8C17 8.55228 17.4477 9 18 9Z" fill="#3772FE"></path><path d="M16 15H8V1H16V15Z" fill="#3772FE"></path><path d="M8 15H16V19H8V15Z" fill="#3FCCF9"></path><path d="M8 19H16V23H8V19Z" fill="#8AADFF"></path><path d="M4 15C3.20459 14.9992 2.44199 14.6829 1.87956 14.1204C1.31712 13.558 1.00079 12.7954 1 12V16C1.00079 16.7954 1.31712 17.558 1.87956 18.1204C2.44199 18.6829 3.20459 18.9992 4 19H8V15H4ZM20 15H16V19H20C20.7954 18.9992 21.558 18.6829 22.1204 18.1204C22.6829 17.558 22.9992 16.7954 23 16V12C22.9992 12.7954 22.6829 13.558 22.1204 14.1204C21.558 14.6829 20.7954 14.9992 20 15Z" fill="#D8F6FF"></path><path d="M20 19H16V23H20C20.7954 22.9992 21.558 22.6829 22.1204 22.1204C22.6829 21.558 22.9992 20.7954 23 20V16C22.9992 16.7954 22.6829 17.558 22.1204 18.1204C21.558 18.6829 20.7954 18.9992 20 19ZM4 19C3.20459 18.9992 2.44199 18.6829 1.87956 18.1204C1.31712 17.558 1.00079 16.7954 1 16V20C1.00079 20.7954 1.31712 21.558 1.87956 22.1204C2.44199 22.6829 3.20459 22.9992 4 23H8V19H4Z" fill="#3FCCF9"></path></svg>