<svg xmlns="http://www.w3.org/2000/svg" width="28" height="28" viewBox="0 0 28 28" fill="none"><path d="M14.777 21.6067C13.9522 21.6036 13.1622 21.2743 12.5794 20.6907C11.9967 20.107 11.6685 19.3165 11.6667 18.4917V9.50838C11.6667 8.96225 11.8104 8.42574 12.0835 7.95276C12.3565 7.47979 12.7492 7.087 13.2221 6.81389C13.6951 6.54077 14.2315 6.39694 14.7777 6.39685C15.3238 6.39676 15.8603 6.54041 16.3334 6.81338L24.1115 11.305C24.5847 11.5781 24.9776 11.9709 25.2509 12.444C25.5241 12.9171 25.6679 13.4537 25.6679 14C25.6679 14.5463 25.5241 15.083 25.2509 15.5561C24.9776 16.0292 24.5847 16.422 24.1115 16.695L16.3334 21.1867C15.8609 21.4609 15.3242 21.6067 14.777 21.6067Z" fill="#3FCCF9"></path><path d="M11.6666 9.50828L6.99881 6.81795C6.52622 6.5451 5.99017 6.40139 5.44447 6.40125C4.89877 6.4011 4.36264 6.54453 3.88991 6.81713C3.41717 7.08973 3.02448 7.4819 2.75125 7.95427C2.47803 8.42664 2.33389 8.96259 2.33331 9.50828V18.4916C2.33578 19.3161 2.66438 20.1061 3.24737 20.6891C3.83036 21.272 4.62035 21.6007 5.44481 21.6031C5.99081 21.602 6.52631 21.4561 6.99881 21.1831L11.6666 18.4916V9.50828Z" fill="#3772FE"></path></svg>