<svg xmlns="http://www.w3.org/2000/svg" width="30" height="30" viewBox="0 0 30 30" fill="none"><path d="M13.0902 25C11.6995 25.0005 10.3223 24.7269 9.03744 24.1949C7.75254 23.6629 6.58508 22.8828 5.60179 21.8994C4.38089 20.6785 3.47698 19.1776 2.96881 17.5274C2.46063 15.8772 2.36359 14.1278 2.68614 12.4316C2.73257 12.1847 2.85242 11.9575 3.03003 11.7798C3.20763 11.6021 3.43473 11.4821 3.68162 11.4355C5.37783 11.1128 7.12722 11.2097 8.7774 11.7178C10.4276 12.2259 11.9285 13.1297 13.1495 14.3506C14.3704 15.5715 15.2743 17.0724 15.7825 18.7226C16.2907 20.3727 16.3877 22.1221 16.065 23.8183C16.0186 24.0653 15.8988 24.2924 15.7212 24.4701C15.5435 24.6479 15.3165 24.7678 15.0696 24.8144C14.417 24.9378 13.7543 24.9999 13.0902 25Z" fill="#3FCCF9"></path><path d="M16.9098 25C16.2457 24.9999 15.583 24.9378 14.9304 24.8144C14.6835 24.7678 14.4564 24.6479 14.2788 24.4701C14.1012 24.2924 13.9814 24.0653 13.9349 23.8183C13.6123 22.1221 13.7093 20.3727 14.2175 18.7226C14.7256 17.0724 15.6296 15.5715 16.8505 14.3506C18.0715 13.1297 19.5724 12.2259 21.2226 11.7178C22.8728 11.2097 24.6221 11.1128 26.3184 11.4355C26.5652 11.4821 26.7923 11.6021 26.9699 11.7798C27.1476 11.9575 27.2674 12.1847 27.3138 12.4316C27.6364 14.1278 27.5393 15.8772 27.0312 17.5274C26.523 19.1776 25.6191 20.6785 24.3982 21.8994C23.4147 22.8826 22.2472 23.6625 20.9624 24.1945C19.6775 24.7265 18.3004 25.0002 16.9098 25Z" fill="#3FCCF9"></path><path d="M15 25C14.7487 25.0003 14.5031 24.9246 14.2956 24.7827C12.7007 23.6976 11.3953 22.239 10.4931 20.5339C9.59091 18.8289 9.11926 16.9291 9.11926 15C9.11926 13.071 9.59091 11.1712 10.4931 9.46611C11.3953 7.76105 12.7007 6.30243 14.2956 5.2173C14.5031 5.07535 14.7486 4.99939 15 4.99939C15.2514 4.99939 15.4969 5.07535 15.7044 5.2173C17.2993 6.30243 18.6047 7.76105 19.5069 9.46611C20.4091 11.1712 20.8808 13.071 20.8808 15C20.8808 16.9291 20.4091 18.8289 19.5069 20.5339C18.6047 22.239 17.2993 23.6976 15.7044 24.7827C15.4969 24.9246 15.2513 25.0003 15 25Z" fill="#3772FE"></path></svg>